<?xml version="1.0" encoding="utf-8"?>
<!-- Generator: Adobe Illustrator 21.1.0, SVG Export Plug-In . SVG Version: 6.00 Build 0)  -->
<svg version="1.1" id="Layer_1" xmlns="http://www.w3.org/2000/svg" xmlns:xlink="http://www.w3.org/1999/xlink" x="0px" y="0px"
	 viewBox="0 0 286 397" style="enable-background:new 0 0 286 397;" xml:space="preserve">
<style type="text/css">
	.st0{fill:none;}
	.st1{fill:#CE4F02;}
	.st2{fill:none;stroke:url(#SVGID_1_);stroke-width:2;stroke-linecap:round;stroke-linejoin:round;stroke-miterlimit:10;}
	.st3{fill:none;stroke:url(#SVGID_2_);stroke-width:2;stroke-linecap:round;stroke-linejoin:round;stroke-miterlimit:10;}
	.st4{fill:none;stroke:url(#SVGID_3_);stroke-width:2;stroke-linecap:round;stroke-linejoin:round;stroke-miterlimit:10;}
	.st5{fill:none;stroke:url(#SVGID_4_);stroke-width:2;stroke-linecap:round;stroke-linejoin:round;stroke-miterlimit:10;}
	.st6{fill:none;stroke:url(#SVGID_5_);stroke-width:2;stroke-linecap:round;stroke-linejoin:round;stroke-miterlimit:10;}
	.st7{fill:none;stroke:url(#SVGID_6_);stroke-width:2;stroke-linecap:round;stroke-linejoin:round;stroke-miterlimit:10;}
	.st3, .st4, .st5, .st6, .st7 {
	  stroke-dasharray: 1000;
	  stroke-dashoffset: 1000;
	  animation: dash 5s linear forwards;
	}
	.st3, .st5 {
		animation-delay: .5s;
	}
	.st4, .st6 {
		animation-delay: 2.4s;
	}
	.st7 {
		animation-delay: 2.5s;
	}
	.st2 {
	  stroke-dasharray: 1000;
	  stroke-dashoffset: 1000;
	  animation: dash1 3s linear forwards;
	}
	@keyframes dash1 {
	  to {
	    stroke-dashoffset: 0;
	  }
	}

	@keyframes dash {
	  to {
	    stroke-dashoffset: 0;
	  }
	}
</style>
<pattern  x="-8603" y="2551" width="684" height="684" patternUnits="userSpaceOnUse" id="New_Pattern_Swatch_1" viewBox="0 -684 684 684" style="overflow:visible;">
	<g>
		<rect y="-684" class="st0" width="684" height="684"/>
		<rect y="-684" class="st1" width="684" height="684"/>
	</g>
</pattern>
<g>
	<pattern  id="SVGID_1_" xlink:href="#New_Pattern_Swatch_1" patternTransform="matrix(0.2511 0 0 0.2511 3774.3086 -3354.8147)">
	</pattern>
	<path class="st2" d="M186,18.1c-11.6,10.5-28.9,7.9-17.1,46.1c11,35.4,29.5,40.5,45.3,50.3C255.4,138.7,283,182.7,283,231
		c0,64-48.4,125.6-112.6,139.4c-1.8,0.6-17.1,5.4-18.2,12.8c-0.4,2.8-2.8,9.2-7,9.2h-4c-4.2,0-6.6-6.4-7-9.2
		c-1.1-7.4-16.4-12.3-18.2-12.8C51.9,356.6,3.5,295.1,3.5,231c0-48.4,27.6-92.4,68.7-116.5c15.8-9.8,35-14.7,45.3-50.3
		C128,28,112,28,101.4,18.1"/>
	<pattern  id="SVGID_2_" xlink:href="#New_Pattern_Swatch_1" patternTransform="matrix(0.2511 0 0 0.2511 3774.3086 -3354.8147)">
	</pattern>
	<circle class="st3" cx="194" cy="73.5" r="19.8"/>
	<pattern  id="SVGID_3_" xlink:href="#New_Pattern_Swatch_1" patternTransform="matrix(0.2511 0 0 0.2511 3774.3086 -3354.8147)">
	</pattern>
	<circle class="st4" cx="92.5" cy="73.5" r="19.8"/>
	<pattern  id="SVGID_4_" xlink:href="#New_Pattern_Swatch_1" patternTransform="matrix(0.2511 0 0 0.2511 3774.3086 -3354.8147)">
	</pattern>
	<circle class="st5" cx="194" cy="73.5" r="11.9"/>
	<pattern  id="SVGID_5_" xlink:href="#New_Pattern_Swatch_1" patternTransform="matrix(0.2511 0 0 0.2511 3774.3086 -3354.8147)">
	</pattern>
	<circle class="st6" cx="92.5" cy="73.5" r="11.9"/>
	<pattern  id="SVGID_6_" xlink:href="#New_Pattern_Swatch_1" patternTransform="matrix(-0.2511 0 0 -0.2511 7222.9043 -8589.3389)">
	</pattern>
	<path class="st7" d="M100.6,18.1c0,0,17.4-13.2,42.7-13.2C167.2,5,186,18.1,186,18.1s-17.4,13-42.7,13
		C119.4,31.1,100.6,18.1,100.6,18.1z"/>
</g>
</svg>
