<?xml version="1.0" encoding="utf-8"?>
<!-- Generator: Adobe Illustrator 21.1.0, SVG Export Plug-In . SVG Version: 6.00 Build 0)  -->
<svg version="1.1" id="Layer_1" xmlns="http://www.w3.org/2000/svg" xmlns:xlink="http://www.w3.org/1999/xlink" x="0px" y="0px"
	 viewBox="0 0 1970 1440" style="enable-background:new 0 0 1970 1440;" xml:space="preserve">
<style type="text/css">
	.st0{fill:#CE4F02;}
	.st1{fill:none;}
	.st2{fill:none;stroke:url(#);stroke-width:4;stroke-linecap:round;stroke-linejoin:round;stroke-miterlimit:10;}
</style>
<g>
	<path class="st0" d="M449.5,204.4c1.2-5.8-1-15.1,1-22.6c3.2-11.9-3.1-23.8-2.8-36.1c0.4-12.8,4.2-13.2,4.6-26.1
		c0.2-7.6-0.3-24.3,2.2-31.9c1.2-3.6-2.5-10.5-5.9-5.3c-7.6,11.9-13,24.9-15.9,38.3c-0.1,0.5-0.2,1-0.4,1.4
		c-1.9,6.3-5.6,15.4-11.8,22c6.2,6.6,9.8,15.7,11.8,22c0.1,0.5,0.3,0.9,0.4,1.4c2.9,13.4,8.3,26.2,15.7,38.1
		C448.9,205.9,449.2,205.6,449.5,204.4z"/>
</g>
<g>
	<path class="st0" d="M850,216.2c-0.3-6.2-3.4-22.9-3.3-28.1c0.2-9,5.1-29.9,5.3-38.9c0.2-8.5-4.4-23.1-4.3-31.6
		c0.2-8.3,5.5-36.5,6.3-47.4c0.3-4.1-3.4,0.1-3.4,0.1c-12.3,15.1-20.9,32.5-24.9,50.8c-0.1,0.5-0.2,1-0.4,1.4
		c-1.9,6.3-5.5,15.3-11.7,21.9c6.2,6.6,9.8,15.6,11.7,21.9c0.1,0.5,0.3,0.9,0.4,1.4c3.8,17.7,12.1,34.6,23.8,49.4
		C849.9,217.2,850.1,217,850,216.2z"/>
</g>
<g>
	<path class="st1" d="M1232.1,88.3c0.3-0.5,0.6-1,0.9-1.5C1232.7,87.3,1232.4,87.8,1232.1,88.3z"/>
	<path class="st1" d="M1226,101c0.2-0.6,0.5-1.1,0.7-1.7C1226.5,99.9,1226.2,100.4,1226,101z"/>
	<path class="st1" d="M1225.2,102.9c0.2-0.5,0.4-1,0.6-1.6C1225.6,101.9,1225.4,102.4,1225.2,102.9z"/>
	<path class="st1" d="M1223.6,107.3c0.2-0.6,0.4-1.2,0.6-1.7C1224,106.2,1223.8,106.8,1223.6,107.3z"/>
	<path class="st1" d="M1226.9,98.8c0.2-0.6,0.5-1.1,0.7-1.6C1227.4,97.7,1227.2,98.2,1226.9,98.8z"/>
	<path class="st1" d="M1224.4,105.1c0.2-0.6,0.4-1.2,0.7-1.7C1224.8,103.9,1224.6,104.5,1224.4,105.1z"/>
	<path class="st1" d="M1231,90.5c0.3-0.5,0.6-1.1,0.9-1.6C1231.5,89.4,1231.3,89.9,1231,90.5z"/>
	<path class="st1" d="M1227.9,96.6c0.3-0.5,0.5-1.1,0.8-1.6C1228.4,95.5,1228.2,96,1227.9,96.6z"/>
	<path class="st1" d="M1229.9,92.5c0.3-0.5,0.5-1,0.8-1.5C1230.4,91.5,1230.2,92,1229.9,92.5z"/>
	<path class="st1" d="M1222.1,176.5c-0.1-0.3-0.2-0.6-0.3-0.9C1221.9,175.9,1222,176.2,1222.1,176.5z"/>
	<path class="st1" d="M1222.1,111.7c0.2-0.6,0.3-1.1,0.5-1.7C1222.5,110.6,1222.3,111.1,1222.1,111.7z"/>
	<path class="st1" d="M1221.1,173c-0.1-0.5-0.3-1.1-0.4-1.6C1220.8,171.9,1220.9,172.5,1221.1,173z"/>
	<path class="st1" d="M1219.8,120.6c0.1-0.6,0.3-1.2,0.4-1.8C1220.1,119.4,1219.9,120,1219.8,120.6z"/>
	<path class="st1" d="M1222.8,109.6c0.2-0.6,0.4-1.2,0.6-1.8C1223.2,108.4,1223,109,1222.8,109.6z"/>
	<path class="st1" d="M1221.5,174.7c-0.1-0.4-0.2-0.8-0.3-1.1C1221.3,173.9,1221.4,174.3,1221.5,174.7z"/>
	<path class="st1" d="M1220.6,171.3c-0.1-0.6-0.3-1.1-0.4-1.7C1220.4,170.2,1220.5,170.8,1220.6,171.3z"/>
	<path class="st1" d="M1220.3,118.4c0.1-0.6,0.3-1.2,0.5-1.8C1220.6,117.2,1220.5,117.8,1220.3,118.4z"/>
	<path class="st1" d="M1233.3,86.3c0.3-0.5,0.6-1,0.9-1.5C1233.9,85.3,1233.6,85.8,1233.3,86.3z"/>
	<path class="st1" d="M1220.9,116.1c0.2-0.6,0.3-1.2,0.5-1.8C1221.2,114.9,1221,115.5,1220.9,116.1z"/>
	<path class="st1" d="M1228.9,94.5c0.2-0.5,0.5-1,0.7-1.5C1229.4,93.5,1229.2,94,1228.9,94.5z"/>
	<path class="st1" d="M1247.1,67.1c0.3-0.4,0.7-0.7,1-1.1C1247.8,66.4,1247.4,66.7,1247.1,67.1z"/>
	<path class="st1" d="M1252,61.8c0.4-0.4,0.7-0.7,1.1-1.1C1252.7,61.1,1252.3,61.4,1252,61.8z"/>
	<path class="st1" d="M1248.6,65.5c0.4-0.4,0.8-0.9,1.2-1.3C1249.3,64.6,1249,65,1248.6,65.5z"/>
	<path class="st1" d="M1253.7,60.1c0.3-0.3,0.7-0.7,1-1C1254.4,59.4,1254,59.7,1253.7,60.1z"/>
	<path class="st1" d="M1250.3,63.6c0.4-0.4,0.8-0.8,1.2-1.3C1251.1,62.8,1250.7,63.2,1250.3,63.6z"/>
	<path class="st1" d="M1255.3,58.5c0.4-0.4,0.8-0.8,1.2-1.2C1256.1,57.8,1255.7,58.2,1255.3,58.5z"/>
	<path class="st1" d="M1219.4,166.2c-1.9-6.3-5.6-15.4-11.8-22c0,0,0,0,0,0C1213.8,150.9,1217.5,159.9,1219.4,166.2
		c0.1,0.5,0.3,0.9,0.4,1.4c0.1,0.6,0.3,1.1,0.4,1.7c-0.1-0.6-0.3-1.1-0.4-1.7C1219.7,167.2,1219.5,166.7,1219.4,166.2z"/>
	<path class="st1" d="M1245.6,68.9c0.3-0.4,0.6-0.8,1-1.1C1246.2,68.1,1245.9,68.5,1245.6,68.9z"/>
	<path class="st1" d="M1237,80.4c0.3-0.5,0.7-1,1-1.5C1237.7,79.4,1237.3,79.9,1237,80.4z"/>
	<path class="st1" d="M1234.5,84.3c0.3-0.4,0.5-0.9,0.8-1.3C1235.1,83.4,1234.8,83.8,1234.5,84.3z"/>
	<path class="st1" d="M1235.7,82.4c0.3-0.5,0.6-1,1-1.5C1236.3,81.4,1236,81.9,1235.7,82.4z"/>
	<path class="st1" d="M1239.8,76.4c0.3-0.4,0.6-0.8,0.9-1.2C1240.3,75.6,1240.1,76,1239.8,76.4z"/>
	<path class="st1" d="M1238.4,78.4c0.3-0.5,0.7-1,1-1.5C1239.1,77.4,1238.7,77.9,1238.4,78.4z"/>
	<path class="st1" d="M1244,70.8c0.4-0.5,0.7-0.9,1.1-1.4C1244.8,69.9,1244.4,70.3,1244,70.8z"/>
	<path class="st1" d="M1241.1,74.6c0.3-0.4,0.7-0.9,1-1.3C1241.7,73.7,1241.4,74.2,1241.1,74.6z"/>
	<path class="st1" d="M1242.5,72.7c0.4-0.5,0.7-0.9,1.1-1.4C1243.2,71.8,1242.8,72.3,1242.5,72.7z"/>
	<path class="st1" d="M1221.5,113.8c0.2-0.6,0.4-1.2,0.5-1.8C1221.9,112.6,1221.7,113.2,1221.5,113.8z"/>
	<path class="st1" d="M1222.5,177.8c0-0.1-0.1-0.2-0.1-0.3C1222.4,177.6,1222.4,177.7,1222.5,177.8z"/>
	<path class="st0" d="M1256.9,227.5c-1.5-9.3-4.5-14.9-4.5-26.1c0-16.6-0.3-28.3-0.3-44.9c0-10.4,0-42.1,0-52.5c0-8.7,3-29.4,7-39.9
		c1.2-3.2,0.2-9.3-2.3-7.1c-0.1,0.1-0.3,0.2-0.4,0.4c-0.4,0.4-0.8,0.8-1.2,1.2c-0.2,0.2-0.4,0.4-0.6,0.6c-0.3,0.3-0.7,0.7-1,1
		c-0.2,0.2-0.4,0.4-0.6,0.6c-0.4,0.4-0.7,0.7-1.1,1.1c-0.2,0.2-0.4,0.4-0.5,0.6c-0.4,0.4-0.8,0.8-1.2,1.3c-0.2,0.2-0.4,0.4-0.5,0.6
		c-0.4,0.4-0.8,0.9-1.2,1.3c-0.2,0.2-0.3,0.4-0.5,0.5c-0.3,0.4-0.7,0.7-1,1.1c-0.2,0.2-0.4,0.4-0.6,0.6c-0.3,0.4-0.6,0.8-1,1.1
		c-0.2,0.2-0.3,0.4-0.5,0.5c-0.4,0.4-0.7,0.9-1.1,1.4c-0.2,0.2-0.3,0.4-0.5,0.6c-0.4,0.5-0.7,0.9-1.1,1.4c-0.1,0.2-0.3,0.4-0.4,0.6
		c-0.3,0.4-0.7,0.9-1,1.3c-0.1,0.2-0.3,0.4-0.4,0.6c-0.3,0.4-0.6,0.8-0.9,1.2c-0.1,0.2-0.2,0.3-0.4,0.5c-0.3,0.5-0.7,1-1,1.5
		c-0.1,0.2-0.3,0.4-0.4,0.6c-0.3,0.5-0.7,1-1,1.5c-0.1,0.2-0.2,0.4-0.4,0.6c-0.3,0.5-0.7,1-1,1.5c-0.1,0.2-0.2,0.3-0.3,0.5
		c-0.3,0.4-0.5,0.9-0.8,1.3c-0.1,0.2-0.2,0.3-0.3,0.5c-0.3,0.5-0.6,1-0.9,1.5c-0.1,0.2-0.2,0.4-0.3,0.5c-0.3,0.5-0.6,1-0.9,1.5
		c-0.1,0.2-0.2,0.4-0.3,0.6c-0.3,0.5-0.6,1-0.9,1.6c-0.1,0.2-0.2,0.3-0.3,0.5c-0.3,0.5-0.5,1-0.8,1.5c-0.1,0.2-0.2,0.3-0.3,0.5
		c-0.3,0.5-0.5,1-0.7,1.5c-0.1,0.2-0.2,0.3-0.2,0.5c-0.3,0.5-0.5,1.1-0.8,1.6c-0.1,0.2-0.2,0.4-0.2,0.5c-0.3,0.5-0.5,1.1-0.7,1.6
		c-0.1,0.2-0.1,0.3-0.2,0.5c-0.2,0.6-0.5,1.1-0.7,1.7c-0.1,0.1-0.1,0.3-0.2,0.4c-0.2,0.5-0.4,1-0.6,1.6c-0.1,0.1-0.1,0.3-0.2,0.4
		c-0.2,0.6-0.4,1.2-0.7,1.7c-0.1,0.2-0.1,0.3-0.2,0.5c-0.2,0.6-0.4,1.1-0.6,1.7c-0.1,0.2-0.1,0.3-0.2,0.5c-0.2,0.6-0.4,1.2-0.6,1.8
		c0,0.1-0.1,0.3-0.1,0.4c-0.2,0.6-0.4,1.1-0.5,1.7c0,0.1-0.1,0.2-0.1,0.3c-0.2,0.6-0.4,1.2-0.5,1.8c0,0.2-0.1,0.3-0.1,0.5
		c-0.2,0.6-0.3,1.2-0.5,1.8c0,0.2-0.1,0.3-0.1,0.5c-0.2,0.6-0.3,1.2-0.5,1.8c0,0.1-0.1,0.3-0.1,0.4c-0.1,0.6-0.3,1.2-0.4,1.8
		c0,0,0,0.1,0,0.1c-0.1,0.5-0.2,1-0.4,1.4c-1.9,6.3-5.6,15.4-11.8,22c6.2,6.6,9.9,15.7,11.8,22c0.1,0.5,0.3,0.9,0.4,1.4
		c0.1,0.6,0.3,1.1,0.4,1.7c0,0.1,0,0.2,0.1,0.3c0.1,0.6,0.3,1.1,0.4,1.7c0,0,0,0,0,0c0.1,0.5,0.3,1.1,0.4,1.6c0,0.2,0.1,0.3,0.1,0.5
		c0.1,0.4,0.2,0.8,0.3,1.1c0.1,0.3,0.2,0.6,0.3,0.9c0.1,0.3,0.2,0.6,0.3,0.9c0.1,0.3,0.2,0.7,0.3,1c0,0.1,0.1,0.2,0.1,0.3
		c6.2,19.7,17.9,38,33.8,53C1257,230.9,1257.2,230,1256.9,227.5z"/>
</g>
<g>
	<path class="st1" d="M1613.4,122.2c0.1-0.5,0.3-0.9,0.4-1.4c5.8-26.9,21.7-51.9,44.7-70.3c0.6-0.5,1.2-1,1.7-1.4
		c-0.6,0.4-1.1,0.9-1.7,1.4c-23,18.4-38.9,43.4-44.7,70.3C1613.7,121.3,1613.5,121.7,1613.4,122.2c-1.9,6.3-5.6,15.4-11.8,22
		c0,0,0,0,0,0C1607.8,137.6,1611.5,128.5,1613.4,122.2z"/>
	<path class="st0" d="M1613.8,120.8c-0.1,0.5-0.2,1-0.4,1.4c-1.9,6.3-5.6,15.4-11.8,22c6.2,6.6,9.8,15.7,11.8,22
		c0.1,0.5,0.3,0.9,0.4,1.4c5.8,26.9,21.7,51.9,44.7,70.3c4.6,3.7,9.5,7.1,14.5,10.1c0.9,0,1.8-0.2,2.7-0.7
		c10.8-6-20.5-25.3-20.1-37.7c0.4-12.4,0.3-29.7,0.8-42.2c0.6-17.6-3.9-44.7-3.3-62.2c0.4-11.2,3.8-30.1,9.8-51.7
		c1.7-6.1,2.5-8.2,0.5-6.9c-1.1,0.8-2.1,1.6-3.2,2.4c-0.5,0.4-1.1,0.9-1.7,1.4C1635.5,68.9,1619.6,93.9,1613.8,120.8z"/>
</g>
<g>
	<path class="st1" d="M38,167.1c-0.1-0.5-0.2-1-0.4-1.4c-1.9-6.3-5.6-15.4-11.8-22c6.2-6.6,9.9-15.7,11.8-22
		c0.1-0.5,0.3-0.9,0.4-1.4c1.8-8.3,4.6-16.5,8.2-24.3c0,0,5.5,22.9,4.7,30.7c-0.4,4-5.5,15.2-6.3,19.1c-1.3,6.4,1.4,20.6,1.3,27.2
		c-0.1,4.8-1.6,14.1-1.6,14.1C41.5,180.5,39.4,173.9,38,167.1z"/>
	<path class="st0" d="M44.6,145.7c0.8-3.9,5.9-15.1,6.3-19.1c0.8-7.7-4.7-30.7-4.7-30.7c-3.6,7.8-6.4,16-8.2,24.3
		c-0.1,0.5-0.2,1-0.4,1.4c-1.9,6.3-5.6,15.4-11.8,22c6.2,6.6,9.9,15.7,11.8,22c0.1,0.5,0.3,0.9,0.4,1.4c1.5,6.8,3.6,13.4,6.3,19.8
		c0,0,1.5-9.3,1.6-14.1C46,166.3,43.3,152.1,44.6,145.7z"/>
</g>
<g>
	<path class="st1" d="M37.4,410.4c0.1-0.5,0.3-0.9,0.4-1.4c5.8-26.9,21.7-51.9,44.7-70.3c1.3-1,2.7-2.2,4.2-3.5
		c-1.4,1-2.8,2.1-4.2,3.2c-23,18.4-38.9,43.4-44.7,70.3c-0.1,0.5-0.2,1-0.4,1.4c-1.9,6.3-5.6,15.4-11.8,22c0,0,0.1,0.1,0.1,0.1
		C31.9,425.6,35.5,416.7,37.4,410.4z"/>
	<path class="st0" d="M37.7,409c-0.1,0.5-0.2,1-0.4,1.4c-1.9,6.3-5.5,15.3-11.7,21.9c6.2,6.6,9.8,15.6,11.7,21.9
		c0.1,0.5,0.3,0.9,0.4,1.4c5.8,26.9,21.7,51.9,44.7,70.3c11.8,9.4,24.8,16.7,38.5,21.5c0.1-1.9-3.2-7.9-6.4-10.9
		c-7.1-6.3-10.6-17.3-10.8-23.3c-0.6-16.4-11.5-36.1-12-52.5c-0.6-16,8.8-52.2,0.8-67.5c-7.1-13.5,6.8-57.2,12-68.3
		c0.2-0.4,0.4-0.8,0.5-1.2c-6.3,3.3-12.5,7.1-18.4,11.4c-1.5,1.2-2.9,2.4-4.2,3.5C59.5,357.1,43.6,382,37.7,409z"/>
</g>
<g>
	<path class="st0" d="M510.2,533.6c-3.3-10.8-6.1-14.4-6.3-22.6c-0.2-11.9-10.5-21-5.4-31.8c6.8-14.3-1.9-32.5,2.4-46.5
		c4-13.2-2.3-22.6-2.5-36.4c-0.2-13.4-7.5-28.4-0.3-46.4c1.2-2.9,14.5-17.3,15.6-26.1c0.3-2.4-0.3-4.7-1.1-6
		c-12.8,4.8-25.1,11.8-36.2,20.7c-23,18.4-38.9,43.4-44.7,70.3c-0.1,0.5-0.2,1-0.4,1.4c-1.9,6.3-5.6,15.4-11.8,22
		c6.2,6.6,9.9,15.7,11.8,22c0.1,0.5,0.3,0.9,0.4,1.4c5.8,26.9,21.7,51.9,44.7,70.3c13.3,10.6,28.2,18.5,43.7,23.2
		C517.6,544.7,511.3,536.9,510.2,533.6z"/>
</g>
<g>
	<path class="st0" d="M918.8,534.1c-0.6-11.7-16-27.7-16-40.7c0-15.8,6.1-53,6.1-68.8c0-15.4-7.9-32.8-7.9-48.2
		c0-13.1-0.4-33,12.5-44.4c2.3-2,0.4-8.6,0.2-12.2c-0.2-2.5-0.2-4.3-0.4-5.4c-15.2,4.7-29.8,12.5-42.8,23
		c-23,18.4-38.9,43.4-44.7,70.3c-0.1,0.5-0.2,1-0.4,1.4c-1.9,6.3-5.6,15.4-11.8,22c6.2,6.6,9.9,15.7,11.8,22
		c0.1,0.5,0.3,0.9,0.4,1.4c5.8,26.9,21.7,51.9,44.7,70.3c15.5,12.4,33.2,21,51.4,25.3C923.5,548.7,918.9,536.6,918.8,534.1z"/>
</g>
<g>
	<path class="st0" d="M1328.6,541.9c-3.5-15.3-25.9-31.9-21.3-48.9c5.5-20.7,5-48.4,8-67c2.3-14.2-11-22-11-36.4
		c0-11.5,0.8-45.2,10.7-60.3c2.3-3.5,7.7-14.9,7.7-17.5c-20.7,3.6-40.8,12.7-58.3,26.7c-23,18.4-38.9,43.4-44.7,70.3
		c-0.1,0.5-0.2,1-0.4,1.4c-1.9,6.3-5.6,15.4-11.8,22c6.2,6.6,9.9,15.7,11.8,22c0.1,0.5,0.3,0.9,0.4,1.4
		c5.8,26.9,21.7,51.9,44.7,70.3c18.8,15,40.7,24.5,63,27.4C1329.2,551.1,1329.2,544.5,1328.6,541.9z"/>
</g>
<g>
	<path class="st1" d="M1728,554.1c-8.2-0.9-15.8-2.1-23-4C1712.6,552.2,1720.3,553.5,1728,554.1z"/>
	<path class="st1" d="M1658.5,338.5c11.8-9.5,25.7-16.7,38-21.4C1683,321.9,1670.1,329.1,1658.5,338.5z"/>
	<path class="st0" d="M1728,554.1c1.1,0.1,2.3,0.1,3.4,0.2c0.8-0.4,1.1-1.7,1.5-2.5c5.6-9.9-12.3-21.7-12-33.7
		c0.4-16.4-8-70.5,0-83.9c8.5-14.3-10-49.8-10-66.4c0-9,7.1-20.7,10-30.7c1.7-6,8.7-25.4,3.3-25.9c-1.2-0.1-2.6-0.1-4.1,0
		c-7.9,1.1-15.8,3.1-23.5,5.9c-12.3,4.6-26.2,11.9-38,21.4c-23,18.4-38.9,43.4-44.7,70.3c-0.1,0.5-0.2,1-0.4,1.4
		c-1.9,6.3-5.6,15.4-11.8,22c6.2,6.6,9.9,15.7,11.8,22c0.1,0.5,0.3,0.9,0.4,1.4c5.8,26.9,21.7,51.9,44.7,70.3
		c14.1,11.3,30,19.5,46.6,24.1C1712.2,551.9,1719.8,553.2,1728,554.1z"/>
</g>
<g>
	<path class="st1" d="M130.9,601.6c6.3-1.3,13.3-2.4,21.5-3.3C145.1,598.7,138,599.8,130.9,601.6z"/>
	<path class="st1" d="M162.3,842.2c-1.1-0.1-2.2-0.2-3.4-0.2c-27.2,0-54.7-10.1-77.5-28.4c-23-18.4-38.9-43.4-44.7-70.3
		c-0.1-0.5-0.2-1-0.4-1.4c-1.9-6.3-5.5-15.3-11.7-21.9c0,0-0.1,0.1-0.1,0.1c6.2,6.6,9.9,15.7,11.8,22c0.1,0.5,0.3,0.9,0.4,1.4
		c5.8,26.9,21.7,51.9,44.7,70.3c22.8,18.3,50.4,28.4,77.5,28.4C160.1,842.3,161.2,842.2,162.3,842.2z"/>
	<path class="st0" d="M36.7,743.3c5.8,26.9,21.7,51.9,44.7,70.3c22.8,18.3,50.4,28.4,77.5,28.4c1.2,0,2.3,0.1,3.4,0.2
		c0.9,0,1.9-0.1,2.8-0.1c1-0.2,1.9-0.8,2.7-1.9c6.2-9.1-13.4-30.1-14.9-41c-1.9-13.4-0.9-41,2.2-54.2c9.9-42.7,0.6-61-5.4-80.1
		c-4.5-14.3,7.8-39.9,5.6-57.7c-0.4-3.2,3.1-8,2.2-9.2c-1.7,0-3.4,0.1-5,0.2c-8.1,0.9-15.2,2-21.5,3.3
		c-17.5,4.4-34.5,12.9-49.4,24.8c-23,18.4-38.9,43.4-44.7,70.3c-0.1,0.5-0.2,1-0.4,1.4c-1.9,6.3-5.5,15.3-11.7,21.9
		c6.2,6.6,9.8,15.6,11.7,21.9C36.5,742.4,36.6,742.9,36.7,743.3z"/>
</g>
<g>
	<path class="st0" d="M575.6,835.8c-6.9-16.3-17.7-45.8-18.2-62.7c-0.5-17.8,9.9-54,9.4-71.8c-0.3-10.4-7.8-37.6-8.1-47.9
		c-0.4-15.2,15.5-41.2,5.4-52.5c-1.3-1.5-2.4-2.2-3.5-2.6c-2.2-0.1-4.4-0.2-6.6-0.2c-27.2,0-54.7,10.1-77.5,28.4
		c-23,18.4-38.9,43.4-44.7,70.3c-0.1,0.5-0.2,1-0.4,1.4c-1.9,6.3-5.6,15.4-11.8,22c6.2,6.6,9.9,15.7,11.8,22
		c0.1,0.5,0.3,0.9,0.4,1.4c5.8,26.9,21.7,51.9,44.7,70.3c22.8,18.3,50.4,28.4,77.5,28.4c6.1,0,12.2-0.5,18.2-1.5
		C575,839.8,576.6,838.3,575.6,835.8z"/>
</g>
<g>
	<path class="st1" d="M953.4,598.2c0.3,0,0.5,0,0.8,0C953.9,598.2,953.7,598.2,953.4,598.2z"/>
	<path class="st1" d="M957.1,598.5c0.3,0,0.5,0,0.8,0.1C957.6,598.5,957.3,598.5,957.1,598.5z"/>
	<path class="st1" d="M960.7,598.8c0.3,0,0.5,0.1,0.8,0.1C961.2,598.9,961,598.9,960.7,598.8z"/>
	<path class="st1" d="M955.2,598.3c0.3,0,0.5,0,0.8,0.1C955.8,598.4,955.5,598.3,955.2,598.3z"/>
	<path class="st1" d="M949.8,598.1c0.2,0,0.4,0,0.6,0C950.2,598.1,950,598.1,949.8,598.1z"/>
	<path class="st1" d="M958.9,598.6c0.3,0,0.5,0.1,0.8,0.1C959.4,598.7,959.1,598.7,958.9,598.6z"/>
	<path class="st1" d="M951.6,598.1c0.2,0,0.5,0,0.7,0C952.1,598.2,951.8,598.1,951.6,598.1z"/>
	<path class="st0" d="M962.8,785.7c3.5-5.8,8.2-46.4,3.9-58.7c-3.6-10.2,16.3-43.4,9-55c-9.4-15-14.1-42.1-3.9-68.2
		c0.5-1.3,0.7-2.3,0.5-2.9c-3.5-0.8-7.1-1.4-10.7-1.9c-0.3,0-0.5-0.1-0.8-0.1c-0.3,0-0.7-0.1-1-0.1c-0.3,0-0.5-0.1-0.8-0.1
		c-0.3,0-0.7-0.1-1-0.1c-0.3,0-0.5,0-0.8-0.1c-0.3,0-0.7-0.1-1-0.1c-0.3,0-0.5,0-0.8-0.1c-0.4,0-0.7,0-1.1-0.1c-0.3,0-0.5,0-0.8,0
		c-0.4,0-0.7,0-1.1,0c-0.2,0-0.5,0-0.7,0c-0.4,0-0.8,0-1.2,0c-0.2,0-0.4,0-0.6,0c-0.6,0-1.2,0-1.8,0c-27.2,0-54.7,10.1-77.5,28.4
		c-23,18.4-38.9,43.4-44.7,70.3c-0.1,0.5-0.2,1-0.4,1.4c-1.9,6.3-5.6,15.4-11.8,22c6.2,6.6,9.9,15.7,11.8,22
		c0.1,0.5,0.3,0.9,0.4,1.4c5.8,26.9,21.7,51.9,44.7,70.3c22.8,18.3,50.4,28.4,77.5,28.4c10.4,0,20.8-1.5,30.9-4.5
		C990.4,831.9,956.1,796.9,962.8,785.7z"/>
</g>
<g>
	<path class="st0" d="M1764.5,838.5c5-1.6,9.8-3.8,14.6-6.7c9.6-5.7-4.1-33.3-3.8-44.5c0.4-16.2-1.8-48.8,0.5-64.9
		c3.8-26.1,3.9-46.9,3.5-59.2c-0.5-15.6,9.3-47.9-2.4-57.2c-13.2-5.2-27-7.9-41-7.9c-27.2,0-54.7,10.1-77.5,28.4
		c-23,18.4-38.9,43.4-44.7,70.3c-0.1,0.5-0.2,1-0.4,1.4c-1.9,6.3-5.6,15.4-11.8,22c6.2,6.6,9.9,15.7,11.8,22
		c0.1,0.5,0.3,0.9,0.4,1.4c5.8,26.9,21.7,51.9,44.7,70.3c22.8,18.3,50.4,28.4,77.5,28.4C1745.6,842.3,1755.2,841.1,1764.5,838.5z"/>
</g>
<g>
	<path class="st0" d="M214.4,1116c4.3-6.6-10.2-33.3-5.3-40.3c9.4-13.4-1.8-37.9-1.8-54.2c0-15.3,7.3-51.7,7.3-67
		c0-11.8,5.3-44.9-2.3-55.3c-16.4-8.6-34.3-13.1-52.4-13.1c-27.2,0-54.7,10.1-77.5,28.4c-23,18.4-38.9,43.4-44.7,70.3
		c-0.1,0.5-0.2,1-0.4,1.4c-1.9,6.3-5.6,15.4-11.8,22c6.2,6.6,9.9,15.7,11.8,22c0.1,0.5,0.3,0.9,0.4,1.4
		c5.8,26.9,21.7,51.9,44.7,70.3c22.8,18.3,50.4,28.4,77.5,28.4C178.7,1130.3,197.4,1125.3,214.4,1116z"/>
</g>
<g>
	<path class="st0" d="M600,1120.7c3.7-2,7.7-4.4,11.9-7.3c8.8-6-1.6-22.7-1.6-33.4c0-17.9,5.3-48.6,5.3-66.5
		c0-13.9-2.6-43.4-2.6-57.2c0-9.9,8.5-43.4,2.4-52.3c-0.8-0.5-1.5-1-2.3-1.4c-17.9-10.7-38-16.4-58.3-16.4
		c-27.2,0-54.7,10.1-77.5,28.4c-23,18.4-38.9,43.4-44.7,70.3c-0.1,0.5-0.2,1-0.4,1.4c-1.9,6.3-5.6,15.4-11.8,22
		c6.2,6.6,9.9,15.7,11.8,22c0.1,0.5,0.3,0.9,0.4,1.4c5.8,26.9,21.7,51.9,44.7,70.3c22.8,18.3,50.4,28.4,77.5,28.4
		C570.3,1130.3,585.7,1127,600,1120.7z"/>
</g>
<g>
	<path class="st0" d="M1006.2,1113.9c4-2.4,7.8-5,11.4-7.8c2.9-7.8-4.8-17.9-4.7-26.4c0.2-16.2,7.4-51.1,7.5-67.3
		c0.1-12.2-0.1-47,0-59.2c0.1-10.5,0.7-32.6-3.7-42.2c-0.5-1-0.9-1.8-1.4-2.5c-2.9-2.2-6-4.2-9.1-6.1c-17.9-10.7-38-16.4-58.3-16.4
		c-27.2,0-54.7,10.1-77.5,28.4c-23,18.4-38.9,43.4-44.7,70.3c-0.1,0.5-0.2,1-0.4,1.4c-1.9,6.3-5.6,15.4-11.8,22
		c6.2,6.6,9.9,15.7,11.8,22c0.1,0.5,0.3,0.9,0.4,1.4c5.8,26.9,21.7,51.9,44.7,70.3c22.8,18.3,50.4,28.4,77.5,28.4
		C968.1,1130.3,988.3,1124.6,1006.2,1113.9z"/>
</g>
<g>
	<path class="st0" d="M1400.2,1113.9c4.6-2.8,9-5.8,13.2-9.1c0.9-0.9,1.9-2,3.2-3.3c5.6-6.1,0.2-25.7,0.7-34
		c1.1-19.9,0.9-61.8,4.8-80.6c2.1-10-2.5-31.7-2.8-41.9c-0.2-6.7,2.8-20.7,0-26.9c-0.5-1.1-1-2-1.6-2.9c-5.4-4.7-11.2-9-17.4-12.6
		c-17.9-10.7-38-16.4-58.3-16.4c-27.2,0-54.7,10.1-77.5,28.4c-23,18.4-38.9,43.4-44.7,70.3c-0.1,0.5-0.2,1-0.4,1.4
		c-1.9,6.3-5.6,15.4-11.8,22c6.2,6.6,9.9,15.7,11.8,22c0.1,0.5,0.3,0.9,0.4,1.4c5.8,26.9,21.7,51.9,44.7,70.3
		c22.8,18.3,50.4,28.4,77.5,28.4C1362.1,1130.3,1382.3,1124.6,1400.2,1113.9z"/>
</g>
<g>
	<path class="st0" d="M1794.2,1113.9c9.6-5.8,18.4-12.9,26.1-21c0.4-0.9,0.8-1.8,1.2-2.8c2.5-7-0.5-24.9-0.5-32.4
		c0-10,2.8-30.2,2.8-40.2c0-12.7-1.5-38.2-1.6-51c0-9.5,5.6-28.8,2.5-38c-8.7-10.3-19-19.1-30.5-26c-17.9-10.7-38-16.4-58.3-16.4
		c-27.2,0-54.7,10.1-77.5,28.4c-23,18.4-38.9,43.4-44.7,70.3c-0.1,0.5-0.2,1-0.4,1.4c-1.9,6.3-5.6,15.4-11.8,22
		c6.2,6.6,9.9,15.7,11.8,22c0.1,0.5,0.3,0.9,0.4,1.4c5.8,26.9,21.7,51.9,44.7,70.3c22.8,18.3,50.4,28.4,77.5,28.4
		C1756.1,1130.3,1776.3,1124.7,1794.2,1113.9z"/>
</g>
<g>
	<path class="st0" d="M218.2,1401.8c15.2-9.1,28.4-21.6,38.5-36.4c0.7-1.1,1.4-2.3,2-3.4c2.8-4.9-1.7-6.8-1.7-12.4
		c0-7.9-5.3-8.8-1.8-45.2c0.9-8.9-1-26.7-1-35.6c0-9.2,6.9-28.3,4.4-37.2c-0.3-1-0.6-2.1-1-3.1c-10.2-15.5-23.8-28.6-39.5-38
		c-17.9-10.7-38-16.4-58.3-16.4c-27.2,0-54.7,10.1-77.5,28.4c-23,18.4-38.9,43.4-44.7,70.3c-0.1,0.5-0.2,1-0.4,1.4
		c-1.9,6.3-5.6,15.4-11.8,22c6.2,6.6,9.9,15.7,11.8,22c0.1,0.5,0.3,0.9,0.4,1.4c5.8,26.9,21.7,51.9,44.7,70.3
		c22.8,18.3,50.4,28.4,77.5,28.4C180.1,1418.3,200.3,1412.6,218.2,1401.8z"/>
</g>
<g>
	<path class="st0" d="M611.2,1401.9c17.6-10.6,32.5-25.7,43-43.6c0.1-0.1,0.1-0.2,0.2-0.4c1.3-2.1,2.5-4.3,3.9-6.7
		c0.6-1.1,1.2-2.1,1.8-3.2c0.7-1.4,1.3-2.6,1.4-3.3c1.6-6.1-4-12.5-4-18.8c0-5.8,3.3-17.4,3.3-23.2c0-5.6-6-17.4-6-23
		c0-9.7,9.4-22.8,7.1-32.2c-1.3-2.1-2.4-4.2-3.5-6.2c-1.3-2.4-2.6-4.6-3.9-6.7c-0.1-0.1-0.2-0.2-0.2-0.4c-10.5-17.9-25.4-33-43-43.6
		c-17.9-10.7-38-16.4-58.3-16.4c-27.2,0-54.7,10.1-77.5,28.4c-23,18.4-38.9,43.4-44.7,70.3c-0.1,0.5-0.2,1-0.4,1.4
		c-1.9,6.3-5.6,15.4-11.8,22c6.2,6.6,9.9,15.7,11.8,22c0.1,0.5,0.3,0.9,0.4,1.4c5.8,26.9,21.7,51.9,44.7,70.3
		c22.8,18.3,50.4,28.4,77.5,28.4C573.1,1418.3,593.3,1412.6,611.2,1401.9z"/>
</g>
<g>
	<path class="st0" d="M1006.2,1401.9c17.6-10.6,32.5-25.7,43-43.6c0.1-0.1,0.1-0.2,0.2-0.4c1.3-2.1,2.5-4.3,3.9-6.7
		c3.3-6,7-12.5,12.5-19.1c0.9-1.7,1.9-3.6,2.7-5.6c2.4-5.6,2.3-13.9,2.3-20c0-4.4-5.3-17.4-5.3-21.8c0-4.6,4.8-14.5,3-18.8
		c-0.9-2-1.8-3.9-2.7-5.6c-5.5-6.6-9.2-13.1-12.5-19.1c-1.3-2.4-2.6-4.6-3.9-6.7c-0.1-0.1-0.2-0.2-0.2-0.4
		c-10.5-17.9-25.4-33-43-43.6c-17.9-10.7-38-16.4-58.3-16.4c-27.2,0-54.7,10.1-77.5,28.4c-23,18.4-38.9,43.4-44.7,70.3
		c-0.1,0.5-0.2,1-0.4,1.4c-1.9,6.3-5.6,15.4-11.8,22c6.2,6.6,9.9,15.7,11.8,22c0.1,0.5,0.3,0.9,0.4,1.4
		c5.8,26.9,21.7,51.9,44.7,70.3c22.8,18.3,50.4,28.4,77.5,28.4C968.1,1418.3,988.3,1412.6,1006.2,1401.9z"/>
</g>
<g>
	<path class="st1" d="M1466.6,1326c-0.2,0.2-0.4,0.3-0.5,0.5C1466.2,1326.3,1466.4,1326.2,1466.6,1326z"/>
	<path class="st1" d="M1466,1265.9c0.2,0.2,0.3,0.3,0.5,0.5C1466.4,1266.2,1466.2,1266.1,1466,1265.9z"/>
	<path class="st0" d="M1401.2,1401.9c17.6-10.6,32.5-25.7,43-43.6c0.1-0.1,0.1-0.2,0.2-0.4c1.3-2.1,2.5-4.3,3.9-6.7
		c4.3-7.7,9.1-16.3,17.8-24.7c0.2-0.2,0.4-0.4,0.5-0.5c3.7-3.5,7.9-6.8,12.5-9.6c1.9-2,2-4.8-2.7-14.1c-1.6-3.2-1.8-12.3-1-15.6
		c0.5-2.2,3.8-9.7,2.3-11.3c-0.3-0.3-0.5-0.5-0.8-0.8c-3.7-2.5-7.2-5.2-10.3-8.2c-0.2-0.2-0.3-0.3-0.5-0.5
		c-8.6-8.4-13.5-17-17.8-24.7c-1.3-2.4-2.6-4.6-3.9-6.7c-0.1-0.1-0.2-0.2-0.2-0.4c-10.5-17.9-25.4-33-43-43.6
		c-17.9-10.7-38-16.4-58.3-16.4c-27.2,0-54.7,10.1-77.5,28.4c-23,18.4-38.9,43.4-44.7,70.3c-0.1,0.5-0.2,1-0.4,1.4
		c-1.9,6.3-5.6,15.4-11.8,22c6.2,6.6,9.9,15.7,11.8,22c0.1,0.5,0.3,0.9,0.4,1.4c5.8,26.9,21.7,51.9,44.7,70.3
		c22.8,18.3,50.4,28.4,77.5,28.4C1363.1,1418.3,1383.3,1412.6,1401.2,1401.9z"/>
</g>
<g>
	<path class="st1" d="M1264.2,626.7c22.8-18.3,50.4-28.4,77.5-28.4c1.5,0,3.1-0.1,4.8-0.2c-1.5-0.1-3-0.1-4.5-0.1
		c-27.2,0-54.7,10.1-77.5,28.4c-4,3.2-7.8,6.6-11.3,10.1C1256.6,633.1,1260.3,629.8,1264.2,626.7z"/>
	<path class="st0" d="M1264.2,626.7c-3.9,3.1-7.6,6.4-11,9.9c-16.9,17-28.6,37.9-33.4,60.2c-0.1,0.5-0.2,1-0.4,1.4
		c-1.9,6.3-5.6,15.4-11.8,22c6.2,6.6,9.9,15.7,11.8,22c0.1,0.5,0.3,0.9,0.4,1.4c5.8,26.9,21.7,51.9,44.7,70.3
		c22.8,18.3,50.4,28.4,77.5,28.4c12.5,0,25-2.2,36.9-6.4c6.6-8.4-12.2-43.1-9.8-55.5c6-31.6,0.5-52.7,5.6-65.3
		c6.4-15.8-1.4-60.2-1.3-77.6c0-9.9,7.4-25.7,1.5-33.7c-0.3-0.4-0.6-0.8-0.9-1.1c-9-2.7-18.2-4.3-27.4-4.7c-1.6,0.1-3.2,0.2-4.8,0.2
		C1314.5,598.3,1287,608.4,1264.2,626.7z"/>
</g>
</svg>
