<?xml version="1.0" encoding="utf-8"?>
<!-- Generator: Adobe Illustrator 21.1.0, SVG Export Plug-In . SVG Version: 6.00 Build 0)  -->
<svg version="1.1" id="Layer_1" xmlns="http://www.w3.org/2000/svg" xmlns:xlink="http://www.w3.org/1999/xlink" x="0px" y="0px"
	 viewBox="0 0 286 392" style="enable-background:new 0 0 286 392;" xml:space="preserve">
<style type="text/css">
	.st0{fill:none;}
	.st1{fill:#CE4F02;}
	.st2{fill:none;stroke:url(#SVGID_1_);stroke-width:2;stroke-linecap:round;stroke-linejoin:round;stroke-miterlimit:10;}
	.st3{fill:none;stroke:url(#SVGID_2_);stroke-width:2;stroke-linecap:round;stroke-linejoin:round;stroke-miterlimit:10;}
	.st4{fill:none;stroke:url(#SVGID_3_);stroke-width:2;stroke-linecap:round;stroke-linejoin:round;stroke-miterlimit:10;}
	.st5{fill:none;stroke:url(#SVGID_4_);stroke-width:2;stroke-linecap:round;stroke-linejoin:round;stroke-miterlimit:10;}
	.st6{fill:none;stroke:url(#SVGID_5_);stroke-width:2;stroke-linecap:round;stroke-linejoin:round;stroke-miterlimit:10;}
	.st7{fill:none;stroke:url(#SVGID_6_);stroke-width:2;stroke-linecap:round;stroke-linejoin:round;stroke-miterlimit:10;}
	.st3, .st4, .st5, .st6, .st7 {
	  stroke-dasharray: 1000;
	  stroke-dashoffset: 1000;
	  animation: dash 5s linear forwards;
	}
	.st3, .st5 {
		animation-delay: .5s;
	}
	.st4, .st6 {
		animation-delay: 2.4s;
	}
	.st7 {
		animation-delay: 2.5s;
	}
	.st2 {
	  stroke-dasharray: 1000;
	  stroke-dashoffset: 1000;
	  animation: dash1 3s linear forwards;
	}
	@keyframes dash1 {
	  to {
	    stroke-dashoffset: 0;
	  }
	}

	@keyframes dash {
	  to {
	    stroke-dashoffset: 0;
	  }
	}
</style>
<pattern  y="394.5" width="684" height="684" patternUnits="userSpaceOnUse" id="SVGID_25_" viewBox="0 -684 684 684" style="overflow:visible;">
	<g>
		<rect y="-684" class="st0" width="684" height="684"/>
		<g>
			<rect y="-684" class="st0" width="684" height="684"/>
			<rect y="-684" class="st1" width="684" height="684"/>
		</g>
	</g>
</pattern>
<pattern  y="394.5" width="684" height="684" patternUnits="userSpaceOnUse" id="SVGID_26_" viewBox="0 -684 684 684" style="overflow:visible;">
	<g>
		<rect y="-684" class="st0" width="684" height="684"/>
		<g>
			<rect y="-684" class="st0" width="684" height="684"/>
			<rect y="-684" class="st1" width="684" height="684"/>
		</g>
	</g>
</pattern>
<pattern  y="394.5" width="684" height="684" patternUnits="userSpaceOnUse" id="SVGID_27_" viewBox="0 -684 684 684" style="overflow:visible;">
	<g>
		<rect y="-684" class="st0" width="684" height="684"/>
		<g>
			<rect y="-684" class="st0" width="684" height="684"/>
			<rect y="-684" class="st1" width="684" height="684"/>
		</g>
	</g>
</pattern>
<pattern  y="394.5" width="684" height="684" patternUnits="userSpaceOnUse" id="SVGID_28_" viewBox="0 -684 684 684" style="overflow:visible;">
	<g>
		<rect y="-684" class="st0" width="684" height="684"/>
		<g>
			<rect y="-684" class="st0" width="684" height="684"/>
			<rect y="-684" class="st1" width="684" height="684"/>
		</g>
	</g>
</pattern>
<pattern  y="394.5" width="684" height="684" patternUnits="userSpaceOnUse" id="SVGID_29_" viewBox="0 -684 684 684" style="overflow:visible;">
	<g>
		<rect y="-684" class="st0" width="684" height="684"/>
		<g>
			<rect y="-684" class="st0" width="684" height="684"/>
			<rect y="-684" class="st1" width="684" height="684"/>
		</g>
	</g>
</pattern>
<pattern  y="394.5" width="684" height="684" patternUnits="userSpaceOnUse" id="SVGID_30_" viewBox="0 -684 684 684" style="overflow:visible;">
	<g>
		<rect y="-684" class="st0" width="684" height="684"/>
		<g>
			<rect y="-684" class="st0" width="684" height="684"/>
			<rect y="-684" class="st1" width="684" height="684"/>
		</g>
	</g>
</pattern>
<g>
	<g>
		<pattern  id="SVGID_1_" xlink:href="#SVGID_25_" patternTransform="matrix(0.2511 0 0 -0.2511 -2744.0945 -6131.4756)">
		</pattern>
		<path class="st2" d="M183.1,16.2c-11.6,10.5-28.9,7.9-17.1,46.1c11,35.4,29.5,40.5,45.3,50.3c41.1,24.1,68.7,68.1,68.7,116.5
			c0,64-48.4,125.6-112.6,139.4c-1.8,0.6-17.1,5.4-18.2,12.8c-0.4,2.8-2.8,9.2-7,9.2l-4,0c-4.2,0-6.6-6.4-7-9.2
			c-1.1-7.4-16.4-12.3-18.2-12.8C49,354.5,0.6,293,0.6,229.1c0-48.4,27.6-92.4,68.7-116.5c15.8-9.8,34.3-14.9,45.3-50.3
			c11.9-38.2-6.2-36.3-17.1-46.1c0,0,15.8,9.2,42.8,9.2C164.7,25.3,183.1,16.2,183.1,16.2z"/>
		<pattern  id="SVGID_2_" xlink:href="#SVGID_26_" patternTransform="matrix(0.2511 0 0 -0.2511 -2744.0945 -6131.4756)">
		</pattern>
		<circle class="st3" cx="191.1" cy="71.4" r="19.8"/>
		<pattern  id="SVGID_3_" xlink:href="#SVGID_27_" patternTransform="matrix(0.2511 0 0 -0.2511 -2744.0945 -6131.4756)">
		</pattern>
		<circle class="st4" cx="89.6" cy="71.4" r="19.8"/>
		<pattern  id="SVGID_4_" xlink:href="#SVGID_28_" patternTransform="matrix(0.2511 0 0 -0.2511 -2744.0945 -6131.4756)">
		</pattern>
		<circle class="st5" cx="191.1" cy="71.4" r="11.9"/>
		<pattern  id="SVGID_5_" xlink:href="#SVGID_29_" patternTransform="matrix(0.2511 0 0 -0.2511 -2744.0945 -6131.4756)">
		</pattern>
		<circle class="st6" cx="89.6" cy="71.4" r="11.9"/>
		<pattern  id="SVGID_6_" xlink:href="#SVGID_30_" patternTransform="matrix(0.2511 0 0 -0.2511 -2744.0945 -6131.4756)">
		</pattern>
		<path class="st7" d="M97.6,16.2c0,0,17.4-13.2,42.7-13.2c23.9,0,42.7,13.2,42.7,13.2"/>
	</g>
</g>
</svg>
